<?xml version="1.0" standalone="no"?>
<!DOCTYPE svg PUBLIC "-//W3C//DTD SVG 20010904//EN"
 "http://www.w3.org/TR/2001/REC-SVG-20010904/DTD/svg10.dtd">
<svg version="1.0" xmlns="http://www.w3.org/2000/svg"
 width="300.000000pt" height="285.000000pt" viewBox="0 0 300.000000 285.000000"
 preserveAspectRatio="xMidYMid meet">
<metadata>
Created by potrace 1.10, written by Peter Selinger 2001-2011
</metadata>
<g transform="translate(0.000000,285.000000) scale(0.100000,-0.100000)"
fill="#000000" stroke="none">
<path d="M1496 2840 c-2 -8 -82 -255 -177 -547 l-173 -533 -575 0 -576 0 56
-38 c30 -20 241 -172 468 -336 316 -230 410 -303 405 -315 -3 -9 -51 -153
-106 -321 -54 -168 -132 -405 -173 -527 -40 -123 -70 -221 -67 -219 4 2 212
153 462 335 250 182 460 329 466 327 9 -3 801 -575 893 -645 31 -23 34 -24 27
-6 -4 11 -46 137 -93 280 -46 143 -124 380 -172 527 l-88 266 301 219 c165
120 374 271 464 336 l164 117 -574 0 -573 0 -124 383 c-69 210 -148 456 -177
547 -29 91 -55 158 -58 150z m24 -156 c0 -7 22 -80 49 -161 27 -81 93 -282
146 -446 59 -180 106 -308 119 -323 l21 -23 500 -4 c333 -2 500 -7 500 -14 0
-10 -71 -65 -270 -208 -60 -44 -114 -83 -120 -87 -5 -4 -55 -40 -110 -80 -286
-205 -305 -221 -305 -264 0 -24 31 -127 105 -349 40 -123 142 -437 190 -593 9
-27 -27 -9 -127 65 -58 43 -158 116 -223 163 -65 47 -164 119 -220 160 -221
162 -249 180 -270 180 -12 0 -37 -10 -56 -23 -91 -62 -256 -181 -434 -312
-269 -199 -365 -264 -365 -249 0 4 11 39 24 78 14 39 75 226 136 416 61 190
120 371 131 403 11 31 18 65 14 76 -9 29 -49 63 -235 196 -241 174 -380 274
-405 293 -5 4 -47 34 -92 67 -81 57 -96 74 -70 76 6 1 231 2 499 3 l487 2 25
23 c18 17 39 68 72 170 26 80 77 238 114 351 38 113 78 237 90 275 35 116 51
152 66 152 8 0 14 -6 14 -13z"/>
</g>
</svg>
